<svg width="16" height="16" viewBox="0 0 16 16" fill="none" xmlns="http://www.w3.org/2000/svg">
<path d="M6.40836 14.3083C6.61503 14.3445 6.82336 14.3667 7.03336 14.375C7.16169 14.3833 7.29169 14.3692 7.41586 14.3333C7.58836 14.285 7.74169 14.1867 7.85752 14.05C8.02086 13.8375 8.14002 13.5942 8.20669 13.3333C8.30669 13.0008 8.30669 12.635 8.40669 12.31C8.43358 12.184 8.50449 12.0718 8.60669 11.9933C8.65252 11.9521 8.70663 11.9211 8.76541 11.9024C8.82419 11.8837 8.88628 11.8778 8.94753 11.885C9.33264 12.0499 9.73441 12.1728 10.1459 12.2517C10.3775 12.2458 10.6025 12.1733 10.795 12.0433C11.0784 11.83 11.3392 11.5917 11.5775 11.3283C11.7392 11.1817 11.8892 11.0233 12.0275 10.8533C12.125 10.7242 12.1909 10.5725 12.2184 10.4125C12.2409 10.26 12.2207 10.1042 12.16 9.96251C12.0701 9.75259 11.9462 9.5589 11.7934 9.38917C11.6064 9.1653 11.4394 8.9255 11.2942 8.67251C11.2403 8.59934 11.204 8.51474 11.1882 8.42529C11.1723 8.33584 11.1772 8.24392 11.2025 8.15667C11.2825 7.99584 11.3959 7.85417 11.5359 7.74084C11.6942 7.6114 11.8664 7.50306 12.0525 7.41584C12.185 7.34917 12.3684 7.31584 12.5184 7.24084C12.6454 7.1858 12.7547 7.09668 12.8342 6.98334C12.9392 6.83584 13.005 6.66418 13.0259 6.48334C13.0509 6.2839 13.0509 6.08445 13.0259 5.88501L12.9092 5.17667C12.9092 5.01084 12.8592 4.80251 12.8175 4.62001C12.7968 4.50979 12.7603 4.40314 12.7092 4.30334C12.622 4.1368 12.481 4.00464 12.3092 3.92834C12.0614 3.83638 11.8001 3.78571 11.5359 3.77834C11.3494 3.76159 11.1682 3.70806 11.0025 3.62084C10.8527 3.56512 10.7206 3.47014 10.62 3.34584C10.5664 3.22158 10.5467 3.08535 10.5628 2.95099C10.5789 2.81663 10.6303 2.68892 10.7117 2.58084C10.8767 2.32751 10.9925 2.04501 11.0534 1.74751C11.0764 1.53832 11.0323 1.32722 10.9274 1.14475C10.8226 0.962276 10.6624 0.817901 10.47 0.732508C10.1548 0.542094 9.82012 0.385929 9.47169 0.266675C9.2726 0.190497 9.05644 0.170322 8.84669 0.208342C8.24002 0.391675 7.94002 1.04084 7.44086 1.34001C7.28893 1.43356 7.10939 1.47182 6.93253 1.44834C6.79235 1.43386 6.65943 1.37884 6.55002 1.29001C6.43335 1.18904 6.33959 1.06431 6.27502 0.924175C6.27502 0.824175 6.20003 0.615842 6.13336 0.482508C6.1053 0.395647 6.054 0.318123 5.98502 0.258342C5.81083 0.134662 5.5989 0.0757119 5.38586 0.0916749C4.89805 0.160819 4.42368 0.304142 3.97919 0.516675C3.80111 0.578455 3.64411 0.68931 3.5263 0.836458C3.4085 0.983606 3.33468 1.16105 3.31336 1.34834C3.30669 1.70417 3.34252 2.05917 3.42169 2.40584C3.4581 2.52391 3.46574 2.64897 3.444 2.77059C3.42226 2.89221 3.37175 3.00687 3.29669 3.10501C3.05502 3.36334 2.78002 3.28834 2.51419 3.20501C2.24752 3.10251 1.96669 3.03834 1.68169 3.01334C1.55106 3.01217 1.42197 3.04173 1.30487 3.09963C1.18776 3.15753 1.0859 3.24216 1.00752 3.34667C0.689079 3.70853 0.450805 4.13368 0.308358 4.59417C0.242234 4.7778 0.214763 4.9731 0.227669 5.16784C0.240575 5.36258 0.29358 5.55255 0.383358 5.72584C0.666691 6.15084 1.11669 6.37501 1.40752 6.75751C1.49419 6.87251 1.55086 7.00751 1.57419 7.14917C1.59026 7.23911 1.58587 7.3315 1.56135 7.4195C1.53682 7.5075 1.49279 7.58885 1.43252 7.65751C1.17364 7.92751 0.896136 8.17695 0.600025 8.40584C0.313401 8.63101 0.108494 8.94393 0.0166915 9.29667C-0.0205522 9.50757 0.00554691 9.72477 0.0916915 9.92084C0.257525 10.23 0.470858 10.5108 0.725025 10.7533C0.985025 11.0978 1.26252 11.4278 1.55752 11.7433C1.75502 11.9383 2.00752 12.0683 2.28169 12.1183C2.76952 12.0711 3.25155 11.9762 3.72086 11.835C3.81823 11.8026 3.92348 11.8026 4.02086 11.835C4.07332 11.8642 4.11854 11.9048 4.15316 11.9539C4.18778 12.0029 4.21092 12.0591 4.22086 12.1183C4.24919 12.5383 4.33586 12.9533 4.47919 13.35C4.65503 13.6375 4.92086 13.86 5.23586 13.9825C5.61086 14.1408 6.00586 14.2492 6.40919 14.3075M5.11086 11.71C4.99041 11.4361 4.77864 11.2126 4.51169 11.0775C4.25616 10.9444 3.96437 10.8976 3.68002 10.9442C3.26336 11.0025 2.84669 11.2775 2.43086 11.2442C2.32252 11.2442 2.21419 11.1192 2.09752 11.0025C1.80669 10.7192 1.53252 10.345 1.37419 10.17C1.23369 10.0352 1.10281 9.89065 0.982525 9.73751C0.915858 9.63751 0.840858 9.53751 0.865858 9.43751C0.928358 9.20167 1.07336 8.99417 1.27419 8.85501C1.57752 8.63584 1.85752 8.38501 2.10669 8.10584C2.23073 7.95298 2.31844 7.77394 2.36319 7.58223C2.40794 7.39052 2.40857 7.19116 2.36502 6.99917C2.32074 6.73637 2.20873 6.48965 2.04002 6.28334C1.68169 5.94167 1.24086 5.74167 0.966691 5.33501C0.841691 5.16001 0.916692 4.86834 1.01669 4.58501C1.11752 4.28251 1.27252 4.00168 1.47419 3.75334C1.60752 3.61168 1.77419 3.65334 1.94919 3.69501C2.24086 3.79723 2.5403 3.86667 2.84752 3.90334C3.01286 3.9116 3.17784 3.88126 3.32942 3.81472C3.481 3.74819 3.61502 3.64729 3.72086 3.52001C3.83895 3.38322 3.92554 3.22215 3.9745 3.04819C4.02346 2.87424 4.0336 2.69165 4.00419 2.51334C3.91502 2.15312 3.86198 1.78492 3.84586 1.41417C3.85548 1.31815 3.89181 1.22673 3.95072 1.15029C4.00963 1.07385 4.08878 1.01544 4.17919 0.981675C4.54662 0.845848 4.92531 0.742671 5.31086 0.673342C5.40352 0.647375 5.50153 0.647375 5.59419 0.673342C5.60669 0.820842 5.65252 0.962508 5.72752 1.09001C5.82169 1.32167 5.96919 1.52667 6.16003 1.68917C6.35586 1.86084 6.60002 1.96751 6.85919 1.99751C7.17636 2.05094 7.5021 1.98568 7.77419 1.81417C8.22419 1.53917 8.48252 0.940008 9.03169 0.790008C9.13169 0.790008 9.31502 0.856675 9.50586 0.940008C9.71141 1.03001 9.90836 1.13556 10.0967 1.25667C10.28 1.38167 10.3634 1.47334 10.3467 1.59834C10.2556 1.89112 10.1306 2.16834 9.97169 2.43001C9.86477 2.62668 9.80875 2.84698 9.80875 3.07084C9.80875 3.2947 9.86477 3.515 9.97169 3.71167C10.0992 3.92834 10.2759 4.11001 10.4884 4.24501C10.78 4.42251 11.1059 4.53834 11.445 4.58584L11.9784 4.67751L12.1034 5.36834L12.1859 5.99251C12.1942 6.10917 12.1942 6.22584 12.1859 6.34251C12.181 6.40068 12.164 6.45718 12.1359 6.50834L11.6692 6.67501C11.364 6.81175 11.0831 6.99723 10.8375 7.22417C10.6576 7.39442 10.5082 7.59427 10.3959 7.81501C10.3199 7.98813 10.2807 8.17512 10.2807 8.36417C10.2807 8.55323 10.3199 8.74022 10.3959 8.91334C10.5684 9.30501 10.7959 9.66834 11.0709 9.99584L11.2875 10.3292L10.9375 10.695C10.8042 10.82 10.6375 11.0117 10.4542 11.1692C10.2709 11.3275 10.2709 11.3442 10.1625 11.3442C9.95633 11.3209 9.75776 11.2526 9.58086 11.1442C9.35041 11.0379 9.10114 10.9784 8.84752 10.9692C8.54502 10.9783 8.25253 11.0858 8.01586 11.2775C7.81086 11.4292 7.64919 11.6333 7.54919 11.8683C7.43252 12.2728 7.34114 12.6833 7.27502 13.1C7.23226 13.2183 7.17929 13.3326 7.11669 13.4417L6.54169 13.3333C6.28509 13.3069 6.0315 13.2567 5.78419 13.1833C5.61967 13.1537 5.47172 13.0647 5.36836 12.9333C5.29391 12.7451 5.25438 12.5449 5.25169 12.3425C5.23212 12.1264 5.18533 11.9138 5.11086 11.71ZM13.1417 10.3042C13.4494 10.515 13.6987 10.8004 13.8662 11.1337C14.0338 11.467 14.1143 11.8373 14.1 12.21C14.1 12.4942 14.0492 12.7767 13.95 13.0433C13.8322 13.4306 13.5775 13.7618 13.2334 13.975C12.8626 14.1955 12.4311 14.2919 12.0017 14.25C11.7982 14.2513 11.5982 14.1979 11.4225 14.0952C11.2469 13.9926 11.1021 13.8446 11.0034 13.6667C10.9759 13.5976 10.9227 13.5418 10.855 13.5111C10.7873 13.4804 10.7104 13.4771 10.6403 13.5019C10.5702 13.5267 10.5125 13.5776 10.4792 13.6441C10.4459 13.7106 10.4396 13.7874 10.4617 13.8583C10.5493 14.1027 10.6928 14.3233 10.8807 14.5024C11.0687 14.6815 11.2959 14.8142 11.5442 14.89C12.2515 15.1266 13.0224 15.0849 13.7 14.7733C14.1639 14.5172 14.5319 14.117 14.7484 13.6333C14.9614 13.1706 15.0477 12.6596 14.9984 12.1525C14.9518 11.6566 14.7726 11.1824 14.4797 10.7797C14.1867 10.3769 13.7908 10.0604 13.3334 9.86334C13.304 9.84316 13.2707 9.82947 13.2357 9.8232C13.2006 9.81692 13.1647 9.8182 13.1302 9.82696C13.0956 9.83571 13.0634 9.85173 13.0356 9.87395C13.0078 9.89617 12.985 9.92408 12.9689 9.9558C12.9527 9.98752 12.9435 10.0223 12.9419 10.0579C12.9403 10.0935 12.9463 10.129 12.9595 10.162C12.9727 10.1951 12.9928 10.2249 13.0185 10.2496C13.0441 10.2743 13.0748 10.2931 13.1084 10.305L13.1417 10.3042Z" fill="black"/>
</svg>
