<svg width="14" height="14" viewBox="0 0 14 14" fill="none" xmlns="http://www.w3.org/2000/svg">
<path d="M7 5.66667C7.30642 5.66667 7.60984 5.60631 7.89293 5.48905C8.17602 5.37179 8.43325 5.19992 8.64992 4.98325C8.86659 4.76658 9.03846 4.50935 9.15572 4.22626C9.27298 3.94317 9.33333 3.63975 9.33333 3.33333C9.33333 3.02692 9.27298 2.7235 9.15572 2.44041C9.03846 2.15731 8.86659 1.90009 8.64992 1.68342C8.43325 1.46675 8.17602 1.29488 7.89293 1.17761C7.60984 1.06035 7.30642 1 7 1C6.38116 1 5.78767 1.24583 5.35008 1.68342C4.9125 2.121 4.66667 2.7145 4.66667 3.33333C4.66667 3.95217 4.9125 4.54566 5.35008 4.98325C5.78767 5.42083 6.38116 5.66667 7 5.66667ZM1 12.6V13H13V12.6C13 11.1067 13 10.36 12.7093 9.78933C12.4537 9.28759 12.0457 8.87966 11.544 8.624C10.9733 8.33333 10.2267 8.33333 8.73333 8.33333H5.26667C3.77333 8.33333 3.02667 8.33333 2.456 8.624C1.95426 8.87966 1.54633 9.28759 1.29067 9.78933C1 10.36 1 11.1067 1 12.6Z" fill="black" stroke="black" stroke-width="2" stroke-linecap="round" stroke-linejoin="round"/>
</svg>
