<svg width="20" height="14" viewBox="0 0 20 14" fill="none" xmlns="http://www.w3.org/2000/svg">
<path d="M15.7292 5.62511H13.4375C13.3073 5.62511 13.1986 5.58111 13.1112 5.49311C13.0238 5.40511 12.9798 5.29603 12.9792 5.16586C12.9786 5.0357 13.0226 4.92692 13.1112 4.83953C13.1998 4.75214 13.3086 4.70845 13.4375 4.70845H15.7292V2.41678C15.7292 2.28661 15.7732 2.17784 15.8612 2.09045C15.9492 2.00306 16.0583 1.95906 16.1884 1.95845C16.3186 1.95784 16.4274 2.00184 16.5148 2.09045C16.6021 2.17906 16.6458 2.28784 16.6458 2.41678V4.70845H18.9375C19.0677 4.70845 19.1765 4.75245 19.2638 4.84045C19.3512 4.92845 19.3952 5.03753 19.3958 5.1677C19.3965 5.29787 19.3525 5.40664 19.2638 5.49403C19.1752 5.58142 19.0665 5.62511 18.9375 5.62511H16.6458V7.91678C16.6458 8.04695 16.6018 8.15573 16.5138 8.24311C16.4258 8.3305 16.3168 8.3745 16.1866 8.37511C16.0564 8.37573 15.9476 8.33173 15.8603 8.24311C15.7729 8.1545 15.7292 8.04573 15.7292 7.91678V5.62511ZM7.25001 6.43637C6.49407 6.43637 5.84659 6.16687 5.30759 5.62787C4.76859 5.08887 4.4994 4.4417 4.50001 3.68637C4.50062 2.93103 4.76982 2.28325 5.30759 1.74303C5.84537 1.20281 6.49284 0.934226 7.25001 0.937282C8.00718 0.940337 8.65465 1.20923 9.19243 1.74395C9.7302 2.27867 9.9994 2.92645 10 3.68728C10.0006 4.44811 9.73143 5.09528 9.19243 5.62878C8.65343 6.16228 8.00595 6.43148 7.25001 6.43637ZM0.833344 12.1124V11.555C0.833344 11.1768 0.943343 10.8229 1.16334 10.4935C1.38395 10.1635 1.68034 9.90748 2.05251 9.72536C2.91784 9.31042 3.78379 8.99936 4.65034 8.7922C5.51629 8.58442 6.38284 8.48053 7.25001 8.48053C8.11718 8.48053 8.98404 8.58442 9.85059 8.7922C10.7171 8.99998 11.5825 9.31103 12.4466 9.72536C12.8194 9.90748 13.1158 10.1635 13.3358 10.4935C13.5564 10.8229 13.6667 11.1768 13.6667 11.555V12.1124C13.6667 12.3813 13.5753 12.6074 13.3926 12.7907C13.2099 12.9728 12.9838 13.0639 12.7143 13.0639H1.78668C1.51718 13.0639 1.29107 12.9725 1.10834 12.7898C0.925621 12.6071 0.833955 12.3813 0.833344 12.1124Z" fill="black"/>
</svg>
