<svg width="18" height="16" viewBox="0 0 18 16" fill="none" xmlns="http://www.w3.org/2000/svg">
<path d="M13.7206 1.6H15.5534C16.0395 1.6 16.5056 1.76857 16.8494 2.06863C17.1931 2.36869 17.3862 2.77565 17.3862 3.2V14.4C17.3862 14.8243 17.1931 15.2313 16.8494 15.5314C16.5056 15.8314 16.0395 16 15.5534 16H2.7239C2.23781 16 1.77164 15.8314 1.42792 15.5314C1.08421 15.2313 0.891113 14.8243 0.891113 14.4V3.2C0.891113 2.32 1.71587 1.6 2.7239 1.6H4.55668V0H6.38946V1.6H11.8878V0H13.7206V1.6ZM2.7239 4.8V14.4H15.5534V4.8H2.7239ZM8.22225 8.8V7.2H10.055V8.8H11.8878V10.4H10.055V12H8.22225V10.4H6.38946V8.8H8.22225Z" fill="black"/>
</svg>
