<svg width="10" height="13" viewBox="0 0 10 13" fill="none" xmlns="http://www.w3.org/2000/svg">
<path fill-rule="evenodd" clip-rule="evenodd" d="M4.60849 0.162944C4.71237 0.0586059 4.85318 0 5 0C5.14682 0 5.28763 0.0586059 5.39151 0.162944L9.82367 4.62026C9.8781 4.67126 9.92176 4.73277 9.95204 4.80112C9.98232 4.86946 9.9986 4.94324 9.99991 5.01805C10.0012 5.09286 9.98754 5.16717 9.95968 5.23655C9.93181 5.30593 9.89034 5.36895 9.83773 5.42186C9.78512 5.47476 9.72246 5.51647 9.65347 5.5445C9.58449 5.57252 9.5106 5.58628 9.43621 5.58496C9.36182 5.58364 9.28846 5.56727 9.2205 5.53681C9.15254 5.50636 9.09137 5.46245 9.04065 5.40771L5.55402 1.9013V12.4428C5.55402 12.5906 5.49565 12.7323 5.39175 12.8368C5.28785 12.9413 5.14694 13 5 13C4.85307 13 4.71215 12.9413 4.60825 12.8368C4.50435 12.7323 4.44598 12.5906 4.44598 12.4428V1.9013L0.959347 5.40771C0.908627 5.46245 0.847463 5.50636 0.779503 5.53681C0.711544 5.56727 0.638182 5.58364 0.563793 5.58496C0.489405 5.58628 0.415514 5.57252 0.346529 5.5445C0.277544 5.51647 0.214877 5.47476 0.162269 5.42186C0.10966 5.36895 0.0681861 5.30593 0.0403218 5.23655C0.0124576 5.16717 -0.00122628 5.09286 8.62221e-05 5.01805C0.00139872 4.94324 0.0176807 4.86946 0.0479611 4.80112C0.0782416 4.73277 0.1219 4.67126 0.176332 4.62026L4.60849 0.162944Z" fill="black"/>
</svg>
