<svg width="14" height="13" viewBox="0 0 14 13" fill="none" xmlns="http://www.w3.org/2000/svg">
<path d="M4.86984 9.084C3.51139 9.084 2.36 8.64381 1.41566 7.76341C0.471887 6.88355 0 5.80975 0 4.542C0 3.27426 0.471887 2.20019 1.41566 1.3198C2.35944 0.439404 3.51083 -0.000527971 4.86984 4.75507e-07C6.22885 0.000528922 7.37996 0.440725 8.32317 1.32059C9.26638 2.20045 9.73827 3.27426 9.73883 4.542C9.73883 5.09264 9.63431 5.62558 9.42528 6.14082C9.21624 6.65605 8.9415 7.09678 8.60104 7.46299L13.6221 12.1453C13.7014 12.2193 13.7439 12.3104 13.7496 12.4188C13.7547 12.526 13.7122 12.622 13.6221 12.7065C13.5315 12.7911 13.4312 12.8333 13.3213 12.8333C13.2114 12.8333 13.1112 12.7911 13.0205 12.7065L8.00027 8.02341C7.5754 8.36109 7.0868 8.6224 6.53448 8.80736C5.98215 8.99232 5.42699 9.08479 4.86899 9.08479M4.86899 8.29212C5.99631 8.29212 6.9483 7.93014 7.72496 7.20617C8.50105 6.48219 8.8891 5.59414 8.8891 4.542C8.8891 3.48986 8.50133 2.60207 7.72581 1.87863C6.95028 1.15519 5.99857 0.793199 4.87069 0.792671C3.74281 0.792671 2.79082 1.15466 2.01473 1.87863C1.23863 2.6026 0.850303 3.49039 0.849737 4.542C0.84917 5.59361 1.23722 6.4814 2.01388 7.20537C2.79054 7.92935 3.74224 8.29133 4.86899 8.29133" fill="#757575"/>
</svg>
