<svg width="15" height="21" viewBox="0 0 15 21" fill="none" xmlns="http://www.w3.org/2000/svg">
<path d="M0.75 -1C0.948912 -1 1.13968 -0.920982 1.28033 -0.78033C1.42098 -0.639678 1.5 -0.448912 1.5 -0.25V1.6L3.22 1.256C4.87082 0.927049 6.58163 1.08406 8.145 1.708L8.349 1.789C9.90991 2.41349 11.6279 2.53035 13.259 2.123C13.4359 2.07878 13.6205 2.07546 13.7989 2.11328C13.9773 2.15111 14.1447 2.22909 14.2884 2.34129C14.4322 2.4535 14.5484 2.59699 14.6284 2.76085C14.7084 2.92472 14.75 3.10466 14.75 3.287V10.654C14.75 11.298 14.311 11.86 13.686 12.016L13.472 12.069C11.7025 12.5113 9.83864 12.385 8.145 11.708C6.58193 11.0843 4.8715 10.9272 3.221 11.256L1.5 11.6V19.75C1.5 19.9489 1.42098 20.1397 1.28033 20.2803C1.13968 20.421 0.948912 20.5 0.75 20.5C0.551088 20.5 0.360322 20.421 0.21967 20.2803C0.0790175 20.1397 0 19.9489 0 19.75V-0.25C0 -0.448912 0.0790175 -0.639678 0.21967 -0.78033C0.360322 -0.920982 0.551088 -1 0.75 -1Z" fill="black"/>
</svg>
